<svg aria-hidden="true" style="position: absolute; width: 0; height: 0; overflow: hidden;" version="1.1" xmlns="http://www.w3.org/2000/svg" xmlns:xlink="http://www.w3.org/1999/xlink">
<defs>
<symbol id="icon-toggle-dark" viewBox="0 0 64 32">
<path fill="#fd5103" style="fill: var(--color1, #fd5103)" d="M16 0.8h32c8.395 0 15.2 6.805 15.2 15.2s-6.805 15.2-15.2 15.2h-32c-8.395 0-15.2-6.805-15.2-15.2s6.805-15.2 15.2-15.2z"></path>
<path fill="#fff" style="fill: var(--color2, #fff)" d="M60.8 16c0 7.069-5.731 12.8-12.8 12.8s-12.8-5.731-12.8-12.8c0-7.069 5.731-12.8 12.8-12.8s12.8 5.731 12.8 12.8z"></path>
<path fill="none" stroke="#fff" style="stroke: var(--color2, #fff)" stroke-linejoin="miter" stroke-linecap="butt" stroke-miterlimit="4" stroke-width="1.6" d="M16 0.8h32c8.395 0 15.2 6.805 15.2 15.2s-6.805 15.2-15.2 15.2h-32c-8.395 0-15.2-6.805-15.2-15.2s6.805-15.2 15.2-15.2z"></path>
</symbol>
<symbol id="icon-toggle-light" viewBox="0 0 64 32">
<path fill="#fff" style="fill: var(--color2, #fff)" d="M16 0.484h32c8.569 0 15.516 6.947 15.516 15.516s-6.947 15.516-15.516 15.516h-32c-8.569 0-15.516-6.947-15.516-15.516s6.947-15.516 15.516-15.516z"></path>
<path fill="#fd5103" style="fill: var(--color1, #fd5103)" d="M27.2 16c0 7.069-5.731 12.8-12.8 12.8s-12.8-5.731-12.8-12.8c0-7.069 5.731-12.8 12.8-12.8s12.8 5.731 12.8 12.8z"></path>
<path fill="none" stroke="#fd5103" style="stroke: var(--color1, #fd5103)" stroke-linejoin="miter" stroke-linecap="butt" stroke-miterlimit="4" stroke-width="0.9675" d="M16 0.484h32c8.569 0 15.516 6.947 15.516 15.516s-6.947 15.516-15.516 15.516h-32c-8.569 0-15.516-6.947-15.516-15.516s6.947-15.516 15.516-15.516z"></path>
</symbol>
<symbol id="icon-search" viewBox="0 0 31 32">
<path fill="#fd5103" style="fill: var(--color1, #fd5103)" d="M12.8 23.68c2.272-0 4.478-0.761 6.268-2.161l5.627 5.627 1.81-1.81-5.627-5.627c1.4-1.79 2.161-3.997 2.162-6.269 0-5.646-4.594-10.24-10.24-10.24s-10.24 4.594-10.24 10.24c0 5.646 4.594 10.24 10.24 10.24zM12.8 5.76c4.236 0 7.68 3.444 7.68 7.68s-3.444 7.68-7.68 7.68c-4.236 0-7.68-3.444-7.68-7.68s3.444-7.68 7.68-7.68z"></path>
</symbol>
<symbol id="icon-arrow-up" viewBox="0 0 32 32">
<path d="M16.724 21.24l10.62-11.146c0.177-0.186 0.276-0.433 0.276-0.69s-0.099-0.504-0.276-0.69l-0.012-0.012c-0.086-0.090-0.189-0.162-0.304-0.212s-0.238-0.075-0.363-0.075c-0.125 0-0.248 0.025-0.363 0.075s-0.218 0.121-0.304 0.212l-10 10.496-9.996-10.496c-0.086-0.090-0.189-0.163-0.304-0.212s-0.238-0.075-0.363-0.075c-0.125 0-0.248 0.025-0.363 0.075s-0.218 0.121-0.304 0.212l-0.012 0.012c-0.177 0.186-0.276 0.433-0.276 0.69s0.099 0.504 0.276 0.69l10.62 11.146c0.093 0.098 0.206 0.176 0.33 0.229s0.258 0.081 0.394 0.081c0.135 0 0.269-0.027 0.394-0.081s0.237-0.131 0.33-0.229z"></path>
</symbol>
<symbol id="icon-icon-close" viewBox="0 0 32 32">
<path d="M17.253 16l7.369-7.369c0.146-0.17 0.222-0.389 0.213-0.613s-0.101-0.436-0.26-0.594-0.37-0.251-0.594-0.26c-0.224-0.009-0.442 0.067-0.613 0.213l-7.369 7.369-7.369-7.378c-0.167-0.167-0.394-0.261-0.631-0.261s-0.464 0.094-0.631 0.261c-0.167 0.167-0.261 0.394-0.261 0.631s0.094 0.464 0.261 0.631l7.378 7.369-7.378 7.369c-0.093 0.080-0.169 0.178-0.222 0.288s-0.083 0.23-0.088 0.353 0.016 0.244 0.061 0.358c0.045 0.114 0.112 0.218 0.199 0.304s0.19 0.154 0.304 0.199 0.236 0.065 0.359 0.061c0.122-0.005 0.243-0.035 0.353-0.088s0.208-0.129 0.288-0.222l7.378-7.369 7.369 7.369c0.17 0.146 0.389 0.222 0.613 0.213s0.436-0.101 0.594-0.26 0.251-0.371 0.26-0.594c0.009-0.224-0.067-0.442-0.213-0.613l-7.369-7.369z"></path>
</symbol>
<symbol id="icon-menu" viewBox="0 0 56 32">
<path d="M1.882 0.941h52.706c1.040 0 1.882 0.843 1.882 1.882s-0.843 1.882-1.882 1.882h-52.706c-1.040 0-1.882-0.843-1.882-1.882s0.843-1.882 1.882-1.882z"></path>
<path d="M1.882 14.118h52.706c1.040 0 1.882 0.843 1.882 1.882s-0.843 1.882-1.882 1.882h-52.706c-1.040 0-1.882-0.843-1.882-1.882s0.843-1.882 1.882-1.882z"></path>
<path d="M1.882 27.294h52.706c1.040 0 1.882 0.843 1.882 1.882s-0.843 1.882-1.882 1.882h-52.706c-1.040 0-1.882-0.843-1.882-1.882s0.843-1.882 1.882-1.882z"></path>
</symbol>
</defs>
</svg>
